# xmcd
#
# Track frame offsets:
#	150
#	48555
#	106964
#	147019
#
# Disc length: 2368 seconds
#
# Revision: 0
# Processed by: cddbd v1.5.2PL0 Copyright (c) Steve Scherf et al.
# Submitted via: audiograbber 1.83.01
#
DISCID=30093e04
DTITLE=Grateful Dead - 93-06-21 Deer Creek Music Centre, Noblesville IN
DYEAR=1900
DGENRE=
TTITLE0=Scarlet Begonias
TTITLE1=Fire On The Mountain
TTITLE2=Men Smart, Women Smarter
TTITLE3=Ship Of Fools
EXTD=
EXTT0=
EXTT1=
EXTT2=
EXTT3=
PLAYORDER=
